# xmcd
#
# Track frame offsets: 
#        150
#        13340
#        27395
#        44637
#        62935
#        83274
#        88771
#        108060
#        123705
#        136145
#        159142
#        165423
#        180623
#        199013
#        213612
#
# Disc length: 2949 seconds
#
# Revision: 1
# Processed by: cddbd v1.5.2PL0 Copyright (c) Steve Scherf et al.
# Submitted via: ExactAudioCopyFreeDBPlugin 1.0
#
DISCID=c50b830f
DTITLE=John Hartford String Band - Memories of John
DYEAR=2010
DGENRE=Bluegrass
TTITLE0=Three Forks of Sandy
TTITLE1=M.I.S.I.P.
TTITLE2=Love Grown Cold
TTITLE3=Madison Tennessee
TTITLE4=Delta Queen Waltz
TTITLE5=For John
TTITLE6=Homer The Roamer
TTITLE7=Bring Your Clothes Back Home
TTITLE8=Half Past Four
TTITLE9=Lorena
TTITLE10=You Don't Notice Me Ignoring You
TTITLE11=The Girl I Left Behind Me
TTITLE12=She's Gone (And Bob's Gone With Her)
TTITLE13=Royal Box Waltz
TTITLE14=Fade Out
EXTD=
EXTT0=
EXTT1=
EXTT2=
EXTT3=
EXTT4=
EXTT5=
EXTT6=
EXTT7=
EXTT8=
EXTT9=
EXTT10=
EXTT11=
EXTT12=
EXTT13=
EXTT14=
PLAYORDER=
